<svg xmlns="http://www.w3.org/2000/svg" viewBox="0 0 1300 1070" width="1300" height="1070" role="img"
     style="font-family:Pretendard,'Apple SD Gothic Neo','Malgun Gothic','Noto Sans KR',sans-serif">
  <title>AI Agent 작업 유형 선택 매트릭스</title>
  <desc>작업 범위(가로: 좁음↔넓음)와 불확실성(세로: 낮음↔높음)으로 나눈 2x2 decision matrix. Quick Fix, Guided Change, Investigation, Design Review 네 사분면과 각 추천 실행 방식. Design Review를 최강조.</desc>

  <defs>
    <marker id="axar" viewBox="0 0 10 10" refX="8" refY="5" markerWidth="10" markerHeight="10" orient="auto-start-reverse">
      <path d="M1,1 L9,5 L1,9 z" fill="#5B6675"/>
    </marker>
    <filter id="soft" x="-20%" y="-20%" width="140%" height="150%">
      <feDropShadow dx="0" dy="5" stdDeviation="8" flood-color="#534AB7" flood-opacity="0.22"/>
    </filter>

    <symbol id="ic-terminal" viewBox="0 0 24 24" fill="none" stroke="currentColor" stroke-width="1.8" stroke-linecap="round" stroke-linejoin="round"><rect x="3" y="4" width="18" height="16" rx="2.5"/><path d="M7 9l3 3-3 3"/><path d="M13 15h4"/></symbol>
    <symbol id="ic-loop" viewBox="0 0 24 24" fill="none" stroke="currentColor" stroke-width="1.8" stroke-linecap="round" stroke-linejoin="round"><path d="M4.5 12a7.5 7.5 0 0 1 12.8-5.3L20 9"/><path d="M20 3.5V9h-5.5"/><path d="M19.5 12a7.5 7.5 0 0 1-12.8 5.3L4 15"/><path d="M4 20.5V15h5.5"/></symbol>
    <symbol id="ic-doc" viewBox="0 0 24 24" fill="none" stroke="currentColor" stroke-width="1.8" stroke-linecap="round" stroke-linejoin="round"><path d="M6 3h8l4 4v14H6z"/><path d="M14 3v4h4"/><path d="M9 13h6M9 16.5h6M9 9.5h2"/></symbol>
    <symbol id="ic-network" viewBox="0 0 24 24" fill="none" stroke="currentColor" stroke-width="1.8" stroke-linecap="round" stroke-linejoin="round"><circle cx="12" cy="5" r="2.5"/><circle cx="5" cy="19" r="2.5"/><circle cx="19" cy="19" r="2.5"/><path d="M12 7.5V13M12 13l-5 4M12 13l5 4"/></symbol>
  </defs>

  <rect x="0" y="0" width="1300" height="1070" fill="#FFFFFF"/>

  <!-- Header -->
  <rect x="44" y="30" width="6" height="42" rx="3" fill="#1F6FB2"/>
  <text x="66" y="54" font-size="32" font-weight="800" fill="#1F2733">AI Agent 작업 유형 선택 매트릭스</text>
  <text x="66" y="84" font-size="16" fill="#5B6675">작업을 AI agent에 맡길 때 &#8212; 범위와 불확실성으로 실행 방식을 고른다</text>

  <!-- ===================== Axes ===================== -->
  <!-- Y axis (uncertainty, up) -->
  <line x1="150" y1="888" x2="150" y2="134" stroke="#5B6675" stroke-width="2" marker-end="url(#axar)"/>
  <text x="150" y="120" font-size="14" font-weight="600" fill="#3F4453" text-anchor="middle">높음</text>
  <text x="150" y="908" font-size="14" font-weight="600" fill="#3F4453" text-anchor="middle">낮음</text>
  <text x="52" y="510" font-size="17" font-weight="700" fill="#3F4453" text-anchor="middle" transform="rotate(-90 52 510)">불확실성</text>
  <!-- X axis (scope, right) -->
  <line x1="210" y1="924" x2="1244" y2="924" stroke="#5B6675" stroke-width="2" marker-end="url(#axar)"/>
  <text x="457" y="950" font-size="14" font-weight="600" fill="#3F4453" text-anchor="middle">좁음</text>
  <text x="992" y="950" font-size="14" font-weight="600" fill="#3F4453" text-anchor="middle">넓음</text>
  <text x="725" y="986" font-size="17" font-weight="700" fill="#3F4453" text-anchor="middle">작업 범위</text>

  <!-- ===================== Quadrant 3 : Investigation (top-left, amber) ===================== -->
  <rect x="210" y="132" width="495" height="360" rx="16" fill="#FBF2E1" stroke="#B5771F" stroke-width="1.4"/>
  <circle cx="244" cy="168" r="17" fill="#B5771F"/>
  <text x="244" y="168" font-size="17" font-weight="700" fill="#FFFFFF" text-anchor="middle" dominant-baseline="central">3</text>
  <circle cx="649" cy="186" r="30" fill="#F5E4C4"/>
  <use href="#ic-doc" x="630" y="167" width="38" height="38" style="color:#B5771F"/>
  <text x="240" y="240" font-size="26" font-weight="700" fill="#7A4E12" dominant-baseline="central">Investigation</text>
  <text x="240" y="272" font-size="14" fill="#5B6675" dominant-baseline="central">좁은 범위 · 높은 불확실성</text>
  <line x1="238" y1="294" x2="677" y2="294" stroke="#E7D3A9" stroke-width="1"/>
  <text x="240" y="324" font-size="13" font-weight="700" fill="#9A7327" letter-spacing="1.5" dominant-baseline="central">예시</text>
  <text x="240" y="352" font-size="16.5" fill="#1F2733" dominant-baseline="central">버그 원인 추적, 깨지는 렌더링 분석,</text>
  <text x="240" y="380" font-size="16.5" fill="#1F2733" dominant-baseline="central">실패 로그 해석</text>
  <rect x="238" y="422" width="439" height="42" rx="9" fill="#F6ECD5"/>
  <text x="256" y="443" font-size="15.5" font-weight="700" fill="#7A4E12" dominant-baseline="central">추천 · 증거 수집 후 최소 수정</text>

  <!-- ===================== Quadrant 4 : Design Review (top-right, purple ACCENT) ===================== -->
  <rect x="745" y="132" width="495" height="360" rx="16" fill="#ECEBFB" stroke="#534AB7" stroke-width="2.6" filter="url(#soft)"/>
  <circle cx="779" cy="168" r="17" fill="#534AB7"/>
  <text x="779" y="168" font-size="17" font-weight="700" fill="#FFFFFF" text-anchor="middle" dominant-baseline="central">4</text>
  <text x="816" y="168" font-size="12" font-weight="700" fill="#534AB7" text-anchor="start" letter-spacing="1" dominant-baseline="central">MOST CAUTION</text>
  <circle cx="1184" cy="192" r="31" fill="#534AB7"/>
  <use href="#ic-network" x="1164" y="172" width="40" height="40" style="color:#FFFFFF"/>
  <text x="775" y="244" font-size="26" font-weight="700" fill="#322B7A" dominant-baseline="central">Design Review</text>
  <text x="775" y="276" font-size="14" fill="#6B63C0" dominant-baseline="central">넓은 범위 · 높은 불확실성</text>
  <line x1="773" y1="298" x2="1212" y2="298" stroke="#C9C5F0" stroke-width="1"/>
  <text x="775" y="328" font-size="13" font-weight="700" fill="#6B63C0" letter-spacing="1.5" dominant-baseline="central">예시</text>
  <text x="775" y="356" font-size="16.5" fill="#1F2733" dominant-baseline="central">아키텍처 방향 검토, 제품 포지셔닝,</text>
  <text x="775" y="384" font-size="16.5" fill="#1F2733" dominant-baseline="central">workflow 재설계</text>
  <rect x="773" y="426" width="439" height="42" rx="9" fill="#534AB7"/>
  <text x="791" y="447" font-size="15.5" font-weight="700" fill="#FFFFFF" dominant-baseline="central">추천 · cross-agent / red-team review</text>

  <!-- ===================== Quadrant 1 : Quick Fix (bottom-left, green) ===================== -->
  <rect x="210" y="528" width="495" height="360" rx="16" fill="#E7F5EF" stroke="#0F7A5F" stroke-width="1.4"/>
  <circle cx="244" cy="564" r="17" fill="#0F7A5F"/>
  <text x="244" y="564" font-size="17" font-weight="700" fill="#FFFFFF" text-anchor="middle" dominant-baseline="central">1</text>
  <circle cx="649" cy="582" r="30" fill="#D3EEE2"/>
  <use href="#ic-terminal" x="630" y="563" width="38" height="38" style="color:#0F7A5F"/>
  <text x="240" y="636" font-size="26" font-weight="700" fill="#085041" dominant-baseline="central">Quick Fix</text>
  <text x="240" y="668" font-size="14" fill="#5B6675" dominant-baseline="central">좁은 범위 · 낮은 불확실성</text>
  <line x1="238" y1="690" x2="677" y2="690" stroke="#C4E6D6" stroke-width="1"/>
  <text x="240" y="720" font-size="13" font-weight="700" fill="#2E8468" letter-spacing="1.5" dominant-baseline="central">예시</text>
  <text x="240" y="748" font-size="16.5" fill="#1F2733" dominant-baseline="central">typo 수정, 작은 테스트 보완,</text>
  <text x="240" y="776" font-size="16.5" fill="#1F2733" dominant-baseline="central">단순 문서 정리</text>
  <rect x="238" y="818" width="439" height="42" rx="9" fill="#DCF0E7"/>
  <text x="256" y="839" font-size="15.5" font-weight="700" fill="#085041" dominant-baseline="central">추천 · 바로 실행</text>

  <!-- ===================== Quadrant 2 : Guided Change (bottom-right, blue) ===================== -->
  <rect x="745" y="528" width="495" height="360" rx="16" fill="#EEF5FC" stroke="#1F6FB2" stroke-width="1.4"/>
  <circle cx="779" cy="564" r="17" fill="#1F6FB2"/>
  <text x="779" y="564" font-size="17" font-weight="700" fill="#FFFFFF" text-anchor="middle" dominant-baseline="central">2</text>
  <circle cx="1184" cy="582" r="30" fill="#DCEBFA"/>
  <use href="#ic-loop" x="1165" y="563" width="38" height="38" style="color:#1F6FB2"/>
  <text x="775" y="636" font-size="26" font-weight="700" fill="#124267" dominant-baseline="central">Guided Change</text>
  <text x="775" y="668" font-size="14" fill="#5B6675" dominant-baseline="central">넓은 범위 · 낮은 불확실성</text>
  <line x1="773" y1="690" x2="1212" y2="690" stroke="#CBDDF0" stroke-width="1"/>
  <text x="775" y="720" font-size="13" font-weight="700" fill="#2C6EA5" letter-spacing="1.5" dominant-baseline="central">예시</text>
  <text x="775" y="748" font-size="16.5" fill="#1F2733" dominant-baseline="central">반복 리팩터링, 문서 구조 정리,</text>
  <text x="775" y="776" font-size="16.5" fill="#1F2733" dominant-baseline="central">예제 일괄 업데이트</text>
  <rect x="773" y="818" width="439" height="42" rx="9" fill="#E3EFFA"/>
  <text x="791" y="839" font-size="15.5" font-weight="700" fill="#124267" dominant-baseline="central">추천 · plan 후 실행</text>

  <!-- ===================== Bottom note ===================== -->
  <rect x="292" y="1012" width="716" height="38" rx="19" fill="#F2F4F8"/>
  <text x="650" y="1031" font-size="14.5" fill="#3F4453" text-anchor="middle" dominant-baseline="central">경험칙: 불확실성이 리뷰 깊이를, 범위가 계획 깊이를 결정한다.</text>
</svg>
