<svg xmlns="http://www.w3.org/2000/svg" viewBox="0 0 1120 760" width="1120" height="760" role="img"
     shape-rendering="geometricPrecision" text-rendering="optimizeLegibility"
     style="font-family:Pretendard,'Apple SD Gothic Neo','Malgun Gothic','Noto Sans KR',sans-serif">
<title>모놀리스 → 마이크로서비스 — 마이그레이션 전 / 후</title>
<desc>왼쪽은 단점이 있는 모놀리식 애플리케이션, 오른쪽은 이점이 있는 마이크로서비스 아키텍처를 나란히 비교한 전/후 패널.</desc>
<style>
  svg{ --bg:#FFFFFF; --ink:#1F2733; --muted:#5B6675; --hair:#DCE3EC;
    --before-fill:#FBF1E3; --before-line:#B77A26; --before-ink:#7A4F12; --before-tint:#F3E1C4;
    --after-fill:#E7F5EF; --after-line:#0F7A5F; --after-ink:#0B5E49; --after-tint:#D0EBDF;
    --app-fill:#ECEBFB; --app-line:#534AB7; --app-ink:#3C3489;
    --band:#F7FAFD; }
  text{ fill:var(--ink) }
  .sub{ fill:var(--muted) }
  .lab{ font-size:15px; font-weight:700; fill:#FFFFFF; letter-spacing:.3px }
  .pt{ font-size:17px }
  .ic{ fill:none; stroke:currentColor; stroke-width:2.4; stroke-linecap:round; stroke-linejoin:round }
</style>
<defs>
  <symbol id="ic-cross" viewBox="0 0 24 24"><path d="M6 6l12 12M18 6L6 18"/></symbol>
  <symbol id="ic-check" viewBox="0 0 24 24"><path d="M5 13l4 4 10-11"/></symbol>
  <symbol id="ic-arrow" viewBox="0 0 24 24"><path d="M4 12h15M13 6l6 6-6 6"/></symbol>
</defs>
<rect width="1120" height="760" fill="var(--bg)"/>

<!-- header -->
<rect x="44" y="40" width="6" height="46" rx="3" fill="var(--after-line)"/>
<text x="66" y="64" style="font-size:32px;font-weight:800">모놀리스 → 마이크로서비스</text>
<text x="66" y="94" class="sub" style="font-size:16px">마이그레이션 전 / 후 — 공유 단위 하나가 독립 서비스로 분리된다</text>

<!-- middle transition arrow -->
<circle cx="560" cy="420" r="22" fill="#FFFFFF" stroke="var(--hair)" stroke-width="1.5"/>
<use href="#ic-arrow" class="ic" x="546" y="406" width="28" height="28" style="color:#8A94A3;stroke-width:2"/>

<!-- ===== BEFORE band ===== -->
<rect x="44" y="124" width="496" height="596" rx="18" fill="var(--band)" stroke="var(--before-line)" stroke-width="1.2"/>
<rect x="68" y="148" width="196" height="34" rx="17" fill="var(--before-line)"/>
<text x="166" y="166" text-anchor="middle" class="lab" dominant-baseline="central">BEFORE · 모놀리스</text>

<!-- monolith visual -->
<rect x="68" y="202" width="448" height="120" rx="14" fill="#FFFFFF" stroke="var(--before-line)" stroke-width="1.4"/>
<text x="292" y="230" text-anchor="middle" dominant-baseline="central" style="font-size:16px;font-weight:700;fill:var(--before-ink)">모놀리식 앱</text>
<rect x="88" y="256" width="130" height="48" rx="9" fill="var(--before-fill)" stroke="var(--before-line)"/>
<text x="153" y="281" text-anchor="middle" dominant-baseline="central" style="font-size:14px;fill:var(--before-ink)">인증</text>
<rect x="227" y="256" width="130" height="48" rx="9" fill="var(--before-fill)" stroke="var(--before-line)"/>
<text x="292" y="281" text-anchor="middle" dominant-baseline="central" style="font-size:14px;fill:var(--before-ink)">주문</text>
<rect x="366" y="256" width="130" height="48" rx="9" fill="var(--before-fill)" stroke="var(--before-line)"/>
<text x="431" y="281" text-anchor="middle" dominant-baseline="central" style="font-size:14px;fill:var(--before-ink)">결제</text>

<!-- before points -->
<g>
  <circle cx="92" cy="366" r="16" fill="var(--before-tint)"/><use href="#ic-cross" class="ic" x="82" y="356" width="20" height="20" style="color:var(--before-ink)"/>
  <text x="124" y="366" dominant-baseline="central" class="pt">단일 배포 단위</text>
  <circle cx="92" cy="424" r="16" fill="var(--before-tint)"/><use href="#ic-cross" class="ic" x="82" y="414" width="20" height="20" style="color:var(--before-ink)"/>
  <text x="124" y="424" dominant-baseline="central" class="pt">공유 데이터베이스 하나</text>
  <circle cx="92" cy="482" r="16" fill="var(--before-tint)"/><use href="#ic-cross" class="ic" x="82" y="472" width="20" height="20" style="color:var(--before-ink)"/>
  <text x="124" y="482" dominant-baseline="central" class="pt">전체 스케일만 가능</text>
  <circle cx="92" cy="540" r="16" fill="var(--before-tint)"/><use href="#ic-cross" class="ic" x="82" y="530" width="20" height="20" style="color:var(--before-ink)"/>
  <text x="124" y="540" dominant-baseline="central" class="pt">하나 장애 → 전체 중단</text>
  <circle cx="92" cy="598" r="16" fill="var(--before-tint)"/><use href="#ic-cross" class="ic" x="82" y="588" width="20" height="20" style="color:var(--before-ink)"/>
  <text x="124" y="598" dominant-baseline="central" class="pt">느리고 결합된 릴리스</text>
</g>
<rect x="68" y="642" width="448" height="52" rx="12" fill="var(--before-fill)" stroke="var(--before-line)" stroke-width=".75"/>
<text x="292" y="668" text-anchor="middle" dominant-baseline="central" style="font-size:14px;font-weight:600;fill:var(--before-ink)">변경 하나가 앱 전체를 배포한다</text>

<!-- ===== AFTER band ===== -->
<rect x="580" y="124" width="496" height="596" rx="18" fill="var(--band)" stroke="var(--after-line)" stroke-width="1.2"/>
<rect x="604" y="148" width="248" height="34" rx="17" fill="var(--after-line)"/>
<text x="728" y="166" text-anchor="middle" class="lab" dominant-baseline="central">AFTER · 마이크로서비스</text>

<!-- microservices visual -->
<rect x="676" y="202" width="304" height="40" rx="10" fill="var(--app-fill)" stroke="var(--app-line)" stroke-width="1.3"/>
<text x="828" y="222" text-anchor="middle" dominant-baseline="central" style="font-size:14px;font-weight:600;fill:var(--app-ink)">API Gateway</text>
<line x1="828" y1="242" x2="828" y2="252" stroke="#8A94A3" stroke-width="1.2"/>
<line x1="672" y1="252" x2="984" y2="252" stroke="#8A94A3" stroke-width="1.2"/>
<line x1="672" y1="252" x2="672" y2="264" stroke="#8A94A3" stroke-width="1.2"/>
<line x1="828" y1="252" x2="828" y2="264" stroke="#8A94A3" stroke-width="1.2"/>
<line x1="984" y1="252" x2="984" y2="264" stroke="#8A94A3" stroke-width="1.2"/>
<rect x="604" y="264" width="136" height="58" rx="10" fill="#FFFFFF" stroke="var(--after-line)" stroke-width="1.2"/>
<text x="672" y="283" text-anchor="middle" dominant-baseline="central" style="font-size:14px;font-weight:600;fill:var(--after-ink)">인증</text>
<text x="672" y="304" text-anchor="middle" dominant-baseline="central" class="sub" style="font-size:11px">전용 DB</text>
<rect x="760" y="264" width="136" height="58" rx="10" fill="#FFFFFF" stroke="var(--after-line)" stroke-width="1.2"/>
<text x="828" y="283" text-anchor="middle" dominant-baseline="central" style="font-size:14px;font-weight:600;fill:var(--after-ink)">주문</text>
<text x="828" y="304" text-anchor="middle" dominant-baseline="central" class="sub" style="font-size:11px">전용 DB</text>
<rect x="916" y="264" width="136" height="58" rx="10" fill="#FFFFFF" stroke="var(--after-line)" stroke-width="1.2"/>
<text x="984" y="283" text-anchor="middle" dominant-baseline="central" style="font-size:14px;font-weight:600;fill:var(--after-ink)">결제</text>
<text x="984" y="304" text-anchor="middle" dominant-baseline="central" class="sub" style="font-size:11px">전용 DB</text>

<!-- after points -->
<g>
  <circle cx="628" cy="366" r="16" fill="var(--after-tint)"/><use href="#ic-check" class="ic" x="618" y="356" width="20" height="20" style="color:var(--after-line)"/>
  <text x="660" y="366" dominant-baseline="central" class="pt">독립 배포</text>
  <circle cx="628" cy="424" r="16" fill="var(--after-tint)"/><use href="#ic-check" class="ic" x="618" y="414" width="20" height="20" style="color:var(--after-line)"/>
  <text x="660" y="424" dominant-baseline="central" class="pt">서비스별 데이터 격리</text>
  <circle cx="628" cy="482" r="16" fill="var(--after-tint)"/><use href="#ic-check" class="ic" x="618" y="472" width="20" height="20" style="color:var(--after-line)"/>
  <text x="660" y="482" dominant-baseline="central" class="pt">서비스별 스케일</text>
  <circle cx="628" cy="540" r="16" fill="var(--after-tint)"/><use href="#ic-check" class="ic" x="618" y="530" width="20" height="20" style="color:var(--after-line)"/>
  <text x="660" y="540" dominant-baseline="central" class="pt">장애 격리</text>
  <circle cx="628" cy="598" r="16" fill="var(--after-tint)"/><use href="#ic-check" class="ic" x="618" y="588" width="20" height="20" style="color:var(--after-line)"/>
  <text x="660" y="598" dominant-baseline="central" class="pt">빠르고 분리된 릴리스</text>
</g>
<rect x="604" y="642" width="448" height="52" rx="12" fill="var(--after-fill)" stroke="var(--after-line)" stroke-width=".75"/>
<text x="828" y="668" text-anchor="middle" dominant-baseline="central" style="font-size:14px;font-weight:600;fill:var(--after-ink)">각 서비스가 독립적으로 배포·스케일된다</text>

<!-- legend -->
<text x="560" y="740" text-anchor="middle" class="sub" style="font-size:13.5px">amber = 레거시 제약  ·  green = 마이그레이션 이점</text>
</svg>
